<?xml version="1.0" encoding="UTF-8"?>
<svg width="108px" height="108px" viewBox="0 0 108 108" version="1.1" xmlns="http://www.w3.org/2000/svg" xmlns:xlink="http://www.w3.org/1999/xlink">
    <!-- Generator: Sketch 55.2 (78181) - https://sketchapp.com -->
    <title>Building audit</title>
    <desc>Created with Sketch.</desc>
    <defs>
        <circle id="path-1" cx="54" cy="54" r="50"></circle>
        <filter x="-7.0%" y="-5.0%" width="114.0%" height="114.0%" filterUnits="objectBoundingBox" id="filter-2">
            <feOffset dx="0" dy="2" in="SourceAlpha" result="shadowOffsetOuter1"></feOffset>
            <feGaussianBlur stdDeviation="2" in="shadowOffsetOuter1" result="shadowBlurOuter1"></feGaussianBlur>
            <feColorMatrix values="0 0 0 0 0   0 0 0 0 0   0 0 0 0 0  0 0 0 0.14414882 0" type="matrix" in="shadowBlurOuter1"></feColorMatrix>
        </filter>
    </defs>
    <g id="Building-audit" stroke="none" stroke-width="1" fill="none" fill-rule="evenodd">
        <g id="Oval">
            <use fill="black" fill-opacity="1" filter="url(#filter-2)" xlink:href="#path-1"></use>
            <use fill="#FFFFFF" fill-rule="evenodd" xlink:href="#path-1"></use>
        </g>
        <g id="Group-16" transform="translate(24.000000, 23.000000)">
            <g id="Group-18">
                <g id="Group-12">
                    <path d="M43.2,28.0547338 L43.2,1 C43.2,0.44771525 42.7522847,-1.01453063e-16 42.2,0 L20.2,0 C19.6477153,1.01453063e-16 19.2,0.44771525 19.2,1 L19.2,36" id="Path-8" stroke="#5295FF" stroke-width="1.5"></path>
                    <path d="M18.9405822,16.8 L1,16.8 C0.44771525,16.8 -6.76353751e-17,17.2477153 0,17.8 L0,49.4 C6.76353751e-17,49.9522847 0.44771525,50.4 1,50.4 L20.4,50.4" id="Path-9" stroke="#5295FF" stroke-width="1.5"></path>
                    <path d="M25.2,9 L37.2,9" id="Path-10" stroke="#14324C"></path>
                    <path d="M25.2,16.2 L37.2,16.2" id="Path-12" stroke="#14324C"></path>
                    <path d="M25.2,22.2 L37.2,22.2" id="Path-13" stroke="#14324C"></path>
                    <path d="M12.6,24 L12.6,42.875625" id="Path-15" stroke="#14324C"></path>
                    <path d="M6.6,24 L6.6,43.2" id="Path-16" stroke="#14324C"></path>
                </g>
                <g id="Group-14" transform="translate(25.200000, 26.400000)">
                    <g id="Group-15">
                        <circle id="Oval" stroke="#224361" fill="#F7FBFF" cx="12.6" cy="12.6" r="12.6"></circle>
                        <path d="M26.907819,18.6043945 L28.107819,18.6043945 L28.107819,34.8043945 C28.107819,35.1357654 27.8391898,35.4043945 27.507819,35.4043945 C27.1764481,35.4043945 26.907819,35.1357654 26.907819,34.8043945 L26.907819,18.6043945 Z" id="Rectangle" fill="#224361" transform="translate(27.507819, 27.004395) rotate(-47.000000) translate(-27.507819, -27.004395) "></path>
                    </g>
                </g>
            </g>
        </g>
    </g>
</svg>