<?xml version="1.0" encoding="UTF-8"?>
<svg width="108px" height="108px" viewBox="0 0 108 108" version="1.1" xmlns="http://www.w3.org/2000/svg" xmlns:xlink="http://www.w3.org/1999/xlink">
    <!-- Generator: Sketch 55.2 (78181) - https://sketchapp.com -->
    <title>Integrations</title>
    <desc>Created with Sketch.</desc>
    <defs>
        <circle id="path-1" cx="54" cy="52" r="50"></circle>
        <filter x="-7.0%" y="-5.0%" width="114.0%" height="114.0%" filterUnits="objectBoundingBox" id="filter-2">
            <feOffset dx="0" dy="2" in="SourceAlpha" result="shadowOffsetOuter1"></feOffset>
            <feGaussianBlur stdDeviation="2" in="shadowOffsetOuter1" result="shadowBlurOuter1"></feGaussianBlur>
            <feColorMatrix values="0 0 0 0 0   0 0 0 0 0   0 0 0 0 0  0 0 0 0.14414882 0" type="matrix" in="shadowBlurOuter1"></feColorMatrix>
        </filter>
    </defs>
    <g id="Integrations" stroke="none" stroke-width="1" fill="none" fill-rule="evenodd">
        <g id="Oval">
            <use fill="black" fill-opacity="1" filter="url(#filter-2)" xlink:href="#path-1"></use>
            <use fill="#FFFFFF" fill-rule="evenodd" xlink:href="#path-1"></use>
        </g>
        <g id="Group-20" transform="translate(23.500000, 20.000000)">
            <g id="Group-19" transform="translate(16.171506, 30.065897)">
                <path d="M14.8697555,1.30597664 L16.0051632,2.32011411 C16.9896603,3.19945948 17.1769846,4.66923872 16.4444926,5.76739092 C15.7259858,6.84464211 15.2925937,7.76536085 15.1443164,8.52954714 C14.9738657,9.40801001 15.103321,10.4757257 15.5326824,11.7326942 L15.532691,11.7326912 C15.8213813,12.5778409 16.4716115,13.2504242 17.3065248,13.5675044 C18.6921884,14.0937465 19.8213653,14.2723073 20.6940555,14.1031866 C21.4297848,13.9606079 22.274432,13.5144798 23.2279971,12.7648024 C24.1529504,12.0376447 25.4922536,12.1979668 26.2194272,13.1229076 C26.221698,13.1257961 26.2239614,13.1286904 26.2262173,13.1315906 L27.1092217,14.2667832 C27.4089425,14.6521049 27.3866514,15.1975171 27.0564866,15.5570953 L22.9110077,20.0718825 C22.6068322,20.9054569 22.6065614,21.708565 22.9101953,22.4812068 C23.2138292,23.2538486 23.8502483,24.069515 24.8194527,24.9282059 C23.4151652,24.0510243 22.2777886,23.5184332 21.4073228,23.3304327 C20.536857,23.1424322 19.9461722,23.3018019 19.6352684,23.8085418 L14.9695452,28.0416596 C14.5830354,28.3923322 13.9918467,28.386811 13.6119538,28.0289807 L8.94249923,23.6307087 C8.5634916,23.3324246 7.92045006,23.3931118 7.01337462,23.8127705 C6.10629918,24.2324292 5.19727802,24.6178528 4.28631115,24.9690414 C4.74639265,24.3503977 5.16848882,23.523058 5.55259966,22.4870222 C5.9367105,21.4509864 5.9369813,20.6478783 5.55341204,20.0776979 L1.3463008,15.5789068 C1.0054965,15.2144745 0.985479122,14.6545843 1.29938793,14.2667445 L5.55714516,9.00621072 C5.63655721,8.57258279 5.37061928,7.80859228 4.75933139,6.71423918 C4.14804349,5.61988608 3.57391367,4.69579268 3.03694193,3.94195897 C3.74253071,4.6882475 4.70375879,5.3339315 5.92062618,5.87901098 C7.13749358,6.42409046 8.01367296,6.42379691 8.54916434,5.87813033 L13.5279021,1.31461198 C13.9065792,0.967516057 14.4866426,0.963783124 14.8697555,1.30597664 Z" id="Path-21" stroke="#224361" transform="translate(14.198292, 14.676421) rotate(3.000000) translate(-14.198292, -14.676421) "></path>
                <ellipse id="Oval" fill="#5295FF" cx="4.28974022" cy="24.9657078" rx="2.09302326" ry="2.07960644"></ellipse>
                <ellipse id="Oval" fill="#5295FF" cx="3.82462394" cy="4.63177814" rx="2.09302326" ry="2.07960644"></ellipse>
                <ellipse id="Oval" fill="#5295FF" cx="24.2897402" cy="24.9657078" rx="2.09302326" ry="2.07960644"></ellipse>
            </g>
            <g id="Group-19" transform="translate(30.790111, 15.469893)">
                <path d="M15.9346577,1.20192078 L17.0548536,2.21549726 C18.0368561,3.10403339 18.2240814,4.57598394 17.4957658,5.6820498 C16.7813279,6.76708018 16.350629,7.69446149 16.2036689,8.46419372 C16.0343182,9.35120137 16.1651312,10.430184 16.5961079,11.7011415 L16.5961061,11.7011421 C16.8821641,12.544732 17.5283127,13.2175751 18.3596378,13.537531 C19.7349222,14.0668431 20.8556346,14.2467749 21.7217749,14.0773264 C22.4510931,13.9346453 23.2879509,13.487897 24.2323484,12.7370814 C25.1443273,12.0120634 26.471378,12.1636036 27.1964109,13.0755708 C27.2036891,13.0847255 27.210891,13.0939406 27.218016,13.1032151 L28.1037909,14.2562256 C28.3983226,14.6396167 28.3763964,15.1788137 28.0517077,15.5370244 L23.9286062,20.0858101 C23.6269302,20.9245285 23.627201,21.7327895 23.9294186,22.510593 C24.2316362,23.2883964 24.8645465,24.1097242 25.8281493,24.9745763 C24.4322246,24.0908224 23.3017408,23.5540495 22.4366978,23.3642575 C21.5716549,23.1744656 20.9848429,23.3344608 20.6762618,23.8442431 L16.0527227,28.09257 C15.6648247,28.448989 15.0669439,28.4433712 14.6858119,28.079726 L10.0515397,23.6580812 C9.67474775,23.3576284 9.03584642,23.4182728 8.13483571,23.8400144 C7.233825,24.261756 6.33085796,24.6490416 5.4259346,25.0018711 C5.88266721,24.3795673 6.30151635,23.5472028 6.68248204,22.5047776 C7.06344772,21.4623524 7.06317693,20.6540914 6.68166966,20.0799947 L2.49014084,15.540614 C2.15492526,15.1775792 2.13512124,14.6241344 2.4435316,14.2380685 L6.67793654,8.93747111 C6.75655085,8.50111424 6.49179472,7.73204291 5.88366816,6.6302571 C5.2755416,5.5284713 4.70445068,4.59806262 4.17039541,3.83903106 C4.8719877,4.59058237 5.82752197,5.24105548 7.03699822,5.7904504 C8.24647446,6.33984531 9.11706798,6.34013886 9.64877878,5.79133104 L14.5833759,1.21054237 C14.9634335,0.857734772 15.5501292,0.853991477 15.9346577,1.20192078 Z" id="Path-21" stroke="#224361" transform="translate(15.267810, 14.649826) rotate(-87.000000) translate(-15.267810, -14.649826) "></path>
                <ellipse id="Oval" fill="#5295FF" transform="translate(25.090584, 25.019997) rotate(-87.000000) translate(-25.090584, -25.019997) " cx="25.0905845" cy="25.0199973" rx="2.07964331" ry="2.09298663"></ellipse>
                <ellipse id="Oval" fill="#5295FF" transform="translate(4.629173, 24.417303) rotate(-87.000000) translate(-4.629173, -24.417303) " cx="4.62917263" cy="24.4173031" rx="2.07964331" ry="2.09298663"></ellipse>
                <ellipse id="Oval" fill="#5295FF" transform="translate(26.137304, 5.175436) rotate(-87.000000) translate(-26.137304, -5.175436) " cx="26.1373036" cy="5.17543604" rx="2.07964331" ry="2.09298663"></ellipse>
            </g>
            <g id="Group-19" transform="translate(31.681012, 14.849027) rotate(-176.000000) translate(-31.681012, -14.849027) translate(18.181012, 1.349027)">
                <path d="M13.665148,0.114077993 L14.8011624,1.12879662 C15.7859462,2.00843212 15.9734492,3.47860332 15.2409443,4.57723635 C14.5232171,5.65376494 14.0903671,6.57396357 13.9423941,7.33783222 C13.7721677,8.21657845 13.9021595,9.2848281 14.3323696,10.5425812 L14.3323724,10.5425802 C14.6211519,11.3868497 15.270766,12.0587559 16.1048154,12.3758461 C17.4913771,12.9029913 18.6211422,13.0821203 19.4941107,12.9132331 C20.2295554,12.7709517 21.0737436,12.3253686 22.0266755,11.5764839 C22.9522359,10.8490594 24.2922394,11.0097253 25.0196327,11.9353101 C25.021776,11.9380374 25.0239127,11.9407699 25.0260426,11.9435076 L25.9095656,13.0791306 C26.2093458,13.4644486 26.1870838,14.0099065 25.8569006,14.3695134 L21.7131146,18.882567 C21.4092148,19.7160249 21.4092148,20.5191188 21.7131146,21.2918487 C22.0170144,22.0645787 22.6537198,22.8804439 23.6232308,23.7394445 C22.2186228,22.8618078 21.0810465,22.328845 20.2105019,22.1405562 C19.3399573,21.9522674 18.7493158,22.1114363 18.4385774,22.6180632 L13.7743942,26.8493665 C13.3878807,27.2000079 12.7967172,27.1944719 12.4168381,26.8366536 L7.74555931,22.4366509 C7.3664444,22.138245 6.72341196,22.1987158 5.816462,22.6180632 C4.90951203,23.0374106 4.00060477,23.4225229 3.08974022,23.7734001 C3.54962125,23.1549214 3.97144591,22.3277377 4.3552142,21.2918487 C4.73898249,20.2559598 4.73898249,19.4528659 4.3552142,18.882567 L0.146305302,14.3822248 C-0.194510668,14.01781 -0.214554425,13.4579273 0.099330419,13.0700743 L4.3552142,7.81127546 C4.43448144,7.37768176 4.1682812,6.61361557 3.5566135,5.51907689 C2.9449458,4.4245382 2.37049424,3.50026867 1.83325883,2.7462683 C2.53911171,3.49278012 3.5005745,4.13877482 4.71764719,4.68425241 C5.93471988,5.22973 6.81091465,5.22973 7.3462315,4.68425241 L12.3233139,0.122669676 C12.7019994,-0.224402107 13.2820492,-0.228116132 13.665148,0.114077993 Z" id="Path-21" stroke="#224361"></path>
                <ellipse id="Oval" fill="#5295FF" cx="3.08974022" cy="23.7734001" rx="2.09302326" ry="2.07960644"></ellipse>
                <ellipse id="Oval" fill="#5295FF" cx="2.62462394" cy="3.43947045" rx="2.09302326" ry="2.07960644"></ellipse>
                <ellipse id="Oval" fill="#5295FF" cx="23.0897402" cy="23.7734001" rx="2.09302326" ry="2.07960644"></ellipse>
            </g>
            <g id="Group-19" transform="translate(0.000000, 14.765488)">
                <path d="M16.234915,0.633158843 L17.3553318,1.64693073 C18.3374292,2.53554887 18.5247137,4.0076217 17.7964014,5.11383982 C17.0822139,6.19862296 16.6516899,7.12582522 16.5048293,7.89544663 C16.3355528,8.78253784 16.4665432,9.86168453 16.8978002,11.1328867 L16.8977986,11.1328872 C17.1838889,11.9761862 17.8298373,12.6488034 18.6608785,12.9687582 C20.0364746,13.4983693 21.1573931,13.6784896 22.0236341,13.5091193 C22.7528716,13.3665363 23.5895944,12.9199646 24.5338026,12.1694041 C25.4460024,11.4443336 26.773277,11.5959907 27.4983758,12.508168 C27.5056068,12.5172646 27.5127625,12.5264207 27.5198422,12.5356355 L28.4057871,13.6887682 C28.700345,14.0721603 28.6784283,14.61138 28.3537272,14.9696022 L24.2311627,19.5177674 C23.9295757,20.3564407 23.9299363,21.1646906 24.2322444,21.9425173 C24.5345525,22.7203439 25.1675626,23.5417312 26.1312747,24.4066792 C24.7352327,23.5227813 23.6046738,22.9858894 22.739598,22.7960034 C21.8745221,22.6061173 21.2877198,22.7660448 20.9791911,23.2757856 L16.3561145,27.5234881 C15.9682171,27.8798898 15.3703529,27.8742675 14.9892267,27.5106339 L10.354303,23.0884388 C9.97747251,22.787948 9.33856917,22.8485202 8.43759296,23.2701553 C7.53661675,23.6917905 6.63368036,24.0789698 5.72878379,24.4316934 C6.18545355,23.8094492 6.60421601,22.9771428 6.98507116,21.9347745 C7.3659263,20.8924061 7.36556576,20.0841561 6.98398952,19.5100246 L2.79184183,14.9701754 C2.45661532,14.6071448 2.43680195,14.0536947 2.74521077,13.6676221 L6.97901911,8.36765296 C7.05758604,7.93131085 6.79274089,7.16222044 6.18448367,6.06038173 C5.57622645,4.95854302 5.00502441,4.02808324 4.47087754,3.26900237 C5.17256289,4.02062182 6.12818246,4.67119283 7.33773626,5.2207154 C8.54729006,5.77023797 9.41789552,5.77062881 9.94955266,5.22188793 L14.8836512,0.641766711 C15.2637098,0.288973958 15.8503928,0.28523665 16.234915,0.633158843 Z" id="Path-21" stroke="#224361" transform="translate(15.569664, 14.080896) rotate(-266.000000) translate(-15.569664, -14.080896) "></path>
                <ellipse id="Oval" fill="#5295FF" transform="translate(5.930546, 3.541953) rotate(-266.000000) translate(-5.930546, -3.541953) " cx="5.93054598" cy="3.54195327" rx="2.07967194" ry="2.09295818"></ellipse>
                <ellipse id="Oval" fill="#5295FF" transform="translate(26.378255, 4.499367) rotate(-266.000000) translate(-26.378255, -4.499367) " cx="26.3782551" cy="4.49936748" rx="2.07967194" ry="2.09295818"></ellipse>
                <ellipse id="Oval" fill="#5295FF" transform="translate(4.535417, 23.365341) rotate(-266.000000) translate(-4.535417, -23.365341) " cx="4.5354165" cy="23.3653415" rx="2.07967194" ry="2.09295818"></ellipse>
            </g>
        </g>
    </g>
</svg>